<?xml version="1.0" encoding="UTF-8" standalone="no"?>
<!-- Created with Inkscape (http://www.inkscape.org/) -->

<svg
   inkscape:version="1.3.2 (091e20e, 2023-11-25, custom)"
   sodipodi:docname="Panel_A.svg"
   viewBox="0 0 107.56869 118.32956"
   height="1.2325997in"
   width="1.1205072in"
   xml:space="preserve"
   id="svg824"
   version="1.1"
   xmlns:inkscape="http://www.inkscape.org/namespaces/inkscape"
   xmlns:sodipodi="http://sodipodi.sourceforge.net/DTD/sodipodi-0.dtd"
   xmlns="http://www.w3.org/2000/svg"
   xmlns:svg="http://www.w3.org/2000/svg"><sodipodi:namedview
     id="namedview826"
     pagecolor="#ffffff"
     bordercolor="#666666"
     borderopacity="1.0"
     inkscape:pageshadow="2"
     inkscape:pageopacity="0.0"
     inkscape:pagecheckerboard="0"
     showgrid="false"
     inkscape:zoom="1.4142135"
     inkscape:cx="269.05414"
     inkscape:cy="254.91201"
     inkscape:window-width="2400"
     inkscape:window-height="1271"
     inkscape:window-x="1341"
     inkscape:window-y="-9"
     inkscape:window-maximized="1"
     inkscape:current-layer="g830"
     inkscape:showpageshadow="2"
     inkscape:deskcolor="#d1d1d1"
     showguides="true"
     inkscape:document-units="in" /><defs
     id="defs828"><rect
       x="-60.000004"
       y="447.00003"
       width="864"
       height="504.00003"
       id="rect3" /><rect
       x="-55.000004"
       y="465.00003"
       width="771"
       height="467.00003"
       id="rect2" /><rect
       x="954"
       y="-53"
       width="433"
       height="283.98859"
       id="rect55591" /><rect
       x="896"
       y="-98"
       width="498"
       height="368.35065"
       id="rect54838" /><rect
       x="923"
       y="-50"
       width="391"
       height="242.8681"
       id="rect54832" /><rect
       x="816"
       y="192.8681"
       width="266.24002"
       height="183.1319"
       id="rect33442" /><rect
       x="1378.5"
       y="445.5"
       width="72.5"
       height="58.5"
       id="rect6311" /><clipPath
       clipPathUnits="userSpaceOnUse"
       id="clipPath9"><path
         d="m 53.637,676.975 h 84.206 v 84.207 H 53.637 Z"
         id="path9"
         transform="translate(-53.637,-677.304)" /></clipPath><clipPath
       clipPathUnits="userSpaceOnUse"
       id="clipPath59"><path
         d="m 53.637,676.975 h 84.206 v 84.207 H 53.637 Z"
         id="path59"
         transform="translate(-53.637,-677.304)" /></clipPath><clipPath
       clipPathUnits="userSpaceOnUse"
       id="clipPath62"><path
         id="path63"
         d="M 0,0 H 83.879 V 52.424 H 0 Z" /></clipPath><clipPath
       clipPathUnits="userSpaceOnUse"
       id="clipPath63"><path
         d="M 0,841.89 H 595.276 V 0 H 0 Z"
         id="path64"
         transform="translate(-48.9703,-746.877)" /></clipPath><clipPath
       clipPathUnits="userSpaceOnUse"
       id="clipPath64"><path
         d="M 0,841.89 H 595.276 V 0 H 0 Z"
         id="path65"
         transform="translate(-46.4771,-707.987)" /></clipPath></defs><g
     id="g830"
     inkscape:groupmode="layer"
     inkscape:label="1_Figures"
     transform="matrix(1.33333,0,0,-1.33333,-24.472013,1090.851)"><text
       xml:space="preserve"
       transform="matrix(0.75,0,0,-0.75,0,841.89)"
       id="text33440"
       style="white-space:pre;shape-inside:url(#rect33442);display:inline;fill:#000000;stroke-width:1.06667;stroke-dasharray:none" /><text
       transform="matrix(0.99975,0,0,-1,202.435,768.896)"
       style="font-style:italic;font-variant:normal;font-weight:normal;font-stretch:normal;font-size:6.0052px;font-family:Arial;-inkscape-font-specification:Arial-ItalicMT;writing-mode:lr-tb;fill:#000000;fill-opacity:1;fill-rule:nonzero;stroke:none;stroke-width:0.8001;stroke-dasharray:none"
       id="text4712"><tspan
         sodipodi:role="line"
         id="tspan4710"
         x="0"
         y="0" /></text><text
       transform="matrix(1,0,0,-0.999943,206.674,631.322)"
       style="font-style:italic;font-variant:normal;font-weight:normal;font-stretch:normal;font-size:3.5017px;font-family:Arial;-inkscape-font-specification:Arial-ItalicMT;writing-mode:lr-tb;fill:#000000;fill-opacity:1;fill-rule:nonzero;stroke:none;stroke-width:0.800023;stroke-dasharray:none"
       id="text4778"><tspan
         sodipodi:role="line"
         id="tspan4776"
         x="0"
         y="0" /></text><text
       transform="matrix(0.999743,0,0,-1,205.189,619.431)"
       style="font-style:italic;font-variant:normal;font-weight:normal;font-stretch:normal;font-size:3.501px;font-family:Arial;-inkscape-font-specification:Arial-ItalicMT;writing-mode:lr-tb;fill:#000000;fill-opacity:1;fill-rule:nonzero;stroke:none;stroke-width:0.800103;stroke-dasharray:none"
       id="text4796"><tspan
         sodipodi:role="line"
         id="tspan4794"
         x="0"
         y="0" /></text><text
       transform="matrix(0.99975,0,0,-1,210.828,617.431)"
       style="font-style:italic;font-variant:normal;font-weight:normal;font-stretch:normal;font-size:6.0052px;font-family:Arial;-inkscape-font-specification:Arial-ItalicMT;writing-mode:lr-tb;fill:#000000;fill-opacity:1;fill-rule:nonzero;stroke:none;stroke-width:0.8001;stroke-dasharray:none"
       id="text4800"><tspan
         sodipodi:role="line"
         id="tspan4798"
         x="0"
         y="0" /></text><path
       d="m 0,0 v 0 h 0.328 0.327 0.328 0.328 0.327 0.328 0.328 0.327 0.328 0.328 0.327 0.328 0.327 0.328 0.328 0.327 0.328 0.328 0.327 0.328 0.328 0.327 0.328 0.328 0.327 0.328 0.328 0.327 0.328 0.328 0.327 0.328 0.327 0.328 0.328 0.327 0.328 0.328 0.327 0.328 0.328 0.327 0.328 0.328 0.327 0.328 0.328 0.327 0.328 0.328 0.327 0.328 0.328 0.327 0.328 0.327 0.328 0.328 0.327 0.328 0.328 0.327 0.328 0.328 0.327 0.328 0.328 0.327 0.328 0.328 0.327 0.328 0.328 0.327 0.328 0.327 0.328 0.328 0.327 0.328 0.328 0.327 0.328 0.328 0.327 0.328 0.328 0.327 0.328 0.328 0.327 0.328 0.328 0.327 0.328 0.328 0.327 0.328 0.327 0.328 0.328 0.327 0.328 0.328 l 0.327,0.328 h 0.328 0.328 0.327 l 0.328,0.327 h 0.328 0.327 l 0.328,0.328 h 0.328 l 0.327,0.328 0.328,0.327 h 0.328 l 0.327,0.328 0.328,0.328 h 0.327 l 0.328,0.327 h 0.328 0.327 0.328 l 0.328,0.328 0.327,0.327 0.328,0.328 0.328,0.328 0.327,0.983 0.328,0.655 0.328,1.311 0.327,0.983 0.328,1.638 0.328,1.638 0.327,1.638 0.328,2.294 0.328,1.966 0.327,2.293 0.328,1.966 0.328,1.966 0.327,2.294 0.328,1.966 0.327,2.293 0.328,1.966 0.328,1.966 0.327,1.966 0.328,2.294 0.328,2.948 0.327,2.949 0.328,3.604 0.328,2.949 0.327,2.621 0.328,1.311 0.328,0.983 0.327,1.311 0.328,1.966 0.328,2.293 0.327,1.638 0.328,1.639 0.328,0.327 0.327,-1.966 0.328,-2.621 0.327,-2.621 0.328,-1.638 0.328,-1.311 0.327,-1.638 0.328,-2.949 0.328,-3.277 0.327,-3.604 0.328,-3.604 0.328,-3.604 0.327,-3.604 0.328,-3.277 0.328,-2.949 0.327,-3.276 0.328,-2.949 0.328,-2.949 0.327,-2.621 0.328,-2.621 L 58.65,9.502 58.977,8.191 59.305,7.208 59.633,6.553 59.96,6.225 60.288,5.57 60.615,5.242 60.943,4.587 61.271,3.932 61.598,2.949 61.926,2.294 62.254,1.966 62.581,1.311 62.909,0.983 63.237,0.655 h 0.327 l 0.328,-0.327 h 0.328 0.327 0.328 L 65.203,0 h 0.327 0.328 0.328 0.327 0.328 0.328 0.327 0.328 0.327 0.328 0.328 0.327 0.328 0.328 0.327 0.328 0.328 0.327 0.328 0.328 0.327 0.328 0.328 0.327 0.328 0.328 0.327 0.328 0.327 0.328 0.328 0.327 0.328 0.328 0.327 0.328 0.328 0.327 0.328 0.328 0.327 0.328 0.328 0.327 0.328 0.328 0.327 0.328 0.327 0.328 0.328 0.327 0.328 0.328 0.327 0.328 0.328"
       style="opacity:1;fill:none;stroke:#000000;stroke-width:0.8;stroke-linecap:round;stroke-linejoin:miter;stroke-miterlimit:10;stroke-dasharray:none;stroke-opacity:1"
       id="path1264"
       clip-path="url(#clipPath9)"
       transform="matrix(0.85,0,0,0.85,27.2542,739.728)" /><path
       d="m 0,0 v 0 h 0.328 0.327 0.328 0.328 0.327 0.328 0.328 0.327 0.328 0.328 0.327 0.328 0.327 0.328 0.328 0.327 0.328 0.328 0.327 0.328 0.328 0.327 0.328 0.328 0.327 0.328 0.328 0.327 0.328 0.328 0.327 0.328 0.327 0.328 0.328 0.327 0.328 0.328 0.327 0.328 0.328 0.327 0.328 0.328 0.327 0.328 0.328 0.327 0.328 0.328 0.327 0.328 0.328 0.327 0.328 0.327 0.328 0.328 0.327 0.328 0.328 0.327 0.328 0.328 0.327 0.328 0.328 l 0.327,0.328 h 0.328 0.328 0.327 0.328 0.328 0.327 L 24.574,0 h 0.327 0.328 0.328 0.327 0.328 0.328 0.327 0.328 0.328 0.327 0.328 0.328 0.327 0.328 0.328 0.327 0.328 0.328 0.327 0.328 0.328 0.327 0.328 0.327 0.328 0.328 0.327 0.328 0.328 0.327 0.328 0.328 0.327 0.328 0.328 0.327 0.328 0.328 0.327 0.328 l 0.328,0.328 h 0.327 l 0.328,0.327 0.327,0.328 0.328,0.328 0.328,0.327 0.327,0.328 0.328,0.655 0.328,0.328 0.327,0.327 0.328,0.328 0.328,0.655 0.327,0.656 0.328,0.983 0.328,1.31 0.327,1.639 0.328,1.966 0.328,1.965 0.327,1.966 0.328,2.294 0.328,2.293 0.327,2.622 0.328,3.276 0.328,4.26 0.327,4.914 0.328,4.915 0.327,4.587 0.328,2.949 0.328,1.311 h 0.327 l 0.328,0.327 0.328,0.656 0.327,1.638 0.328,1.311 0.328,0.327 0.327,-1.31 0.328,-2.294 0.328,-2.949 0.327,-2.949 0.328,-1.966 0.328,-0.655 h 0.327 0.328 0.328 l 0.327,-0.983 0.328,-1.638 0.327,-1.311 0.328,-1.31 0.328,-0.983 0.327,-1.638 0.328,-2.622 0.328,-3.604 0.327,-4.259 0.328,-3.932 0.328,-3.277 0.327,-2.293 0.328,-1.638 L 56.684,9.83 57.011,8.519 57.339,7.864 57.667,6.553 57.994,5.57 58.322,4.587 58.65,3.604 58.977,2.621 59.305,1.966 59.633,1.638 59.96,1.311 60.288,0.983 60.615,0.655 60.943,0.328 h 0.328 0.327 L 61.926,0 h 0.328 0.327 0.328 0.328 0.327 0.328 0.328 0.327 0.328 0.328 0.327 0.328 0.328 0.327 0.328 0.328 0.327 0.328 0.327 0.328 0.328 0.327 0.328 0.328 0.327 0.328 0.328 0.327 0.328 0.328 0.327 0.328 0.328 0.327 0.328 0.328 0.327 0.328 0.327 0.328 0.328 0.327 0.328 0.328 0.327 0.328 0.328 0.327 0.328 0.328 0.327 0.328 0.328 0.327 0.328 0.328 0.327 0.328 0.327 0.328 0.328 0.327 0.328 0.328 0.327 0.328 0.328"
       style="opacity:0.399994;fill:#7f8080;fill-opacity:1;fill-rule:nonzero;stroke:none;stroke-width:0.8;stroke-dasharray:none"
       id="path1282"
       clip-path="url(#clipPath62)"
       transform="matrix(0.85,0,0,0.85,27.2542,739.728)" /><path
       d="m 0,0 v 0 h 0.328 0.327 0.328 0.328 0.327 0.328 0.328 0.327 0.328 0.328 0.327 0.328 0.327 0.328 0.328 0.327 0.328 0.328 0.327 0.328 0.328 0.327 0.328 0.328 0.327 0.328 0.328 0.327 0.328 0.328 0.327 0.328 0.327 0.328 0.328 0.327 0.328 0.328 0.327 0.328 0.328 0.327 0.328 0.328 0.327 0.328 0.328 0.327 0.328 0.328 0.327 0.328 0.328 0.327 0.328 0.327 0.328 0.328 0.327 0.328 0.328 0.327 0.328 0.328 0.327 0.328 0.328 l 0.327,0.328 h 0.328 0.328 0.327 0.328 0.328 0.327 L 24.574,0 h 0.327 0.328 0.328 0.327 0.328 0.328 0.327 0.328 0.328 0.327 0.328 0.328 0.327 0.328 0.328 0.327 0.328 0.328 0.327 0.328 0.328 0.327 0.328 0.327 0.328 0.328 0.327 0.328 0.328 0.327 0.328 0.328 0.327 0.328 0.328 0.327 0.328 0.328 0.327 0.328 l 0.328,0.328 h 0.327 l 0.328,0.327 0.327,0.328 0.328,0.328 0.328,0.327 0.327,0.328 0.328,0.655 0.328,0.328 0.327,0.327 0.328,0.328 0.328,0.655 0.327,0.656 0.328,0.983 0.328,1.31 0.327,1.639 0.328,1.966 0.328,1.965 0.327,1.966 0.328,2.294 0.328,2.293 0.327,2.622 0.328,3.276 0.328,4.26 0.327,4.914 0.328,4.915 0.327,4.587 0.328,2.949 0.328,1.311 h 0.327 l 0.328,0.327 0.328,0.656 0.327,1.638 0.328,1.311 0.328,0.327 0.327,-1.31 0.328,-2.294 0.328,-2.949 0.327,-2.949 0.328,-1.966 0.328,-0.655 h 0.327 0.328 0.328 l 0.327,-0.983 0.328,-1.638 0.327,-1.311 0.328,-1.31 0.328,-0.983 0.327,-1.638 0.328,-2.622 0.328,-3.604 0.327,-4.259 0.328,-3.932 0.328,-3.277 0.327,-2.293 0.328,-1.638 L 56.684,9.83 57.011,8.519 57.339,7.864 57.667,6.553 57.994,5.57 58.322,4.587 58.65,3.604 58.977,2.621 59.305,1.966 59.633,1.638 59.96,1.311 60.288,0.983 60.615,0.655 60.943,0.328 h 0.328 0.327 L 61.926,0 h 0.328 0.327 0.328 0.328 0.327 0.328 0.328 0.327 0.328 0.328 0.327 0.328 0.328 0.327 0.328 0.328 0.327 0.328 0.327 0.328 0.328 0.327 0.328 0.328 0.327 0.328 0.328 0.327 0.328 0.328 0.327 0.328 0.328 0.327 0.328 0.328 0.327 0.328 0.327 0.328 0.328 0.327 0.328 0.328 0.327 0.328 0.328 0.327 0.328 0.328 0.327 0.328 0.328 0.327 0.328 0.328 0.327 0.328 0.327 0.328 0.328 0.327 0.328 0.328 0.327 0.328 0.328"
       style="opacity:1;fill:none;stroke:#7f8080;stroke-width:0.8;stroke-linecap:round;stroke-linejoin:miter;stroke-miterlimit:10;stroke-dasharray:none;stroke-opacity:1"
       id="path1292"
       transform="matrix(0.85,0,0,0.85,27.2542,739.728)"
       clip-path="url(#clipPath59)" /><path
       d="m 25.182983,813.44912 h 83.879007 v -83.879 H 25.182983 Z"
       style="opacity:1;fill:none;stroke:#000000;stroke-width:0.8;stroke-linecap:round;stroke-linejoin:miter;stroke-miterlimit:10;stroke-dasharray:none;stroke-opacity:1"
       id="path1294"
       transform="matrix(0.85,0,0,0.85,5.98808,119.453)" /><path
       d="M 0,0 V -2.294"
       style="opacity:1;fill:none;stroke:#000000;stroke-width:0.8;stroke-linecap:butt;stroke-linejoin:bevel;stroke-miterlimit:10;stroke-dasharray:none;stroke-opacity:1"
       id="path1298"
       transform="matrix(0.85,0,0,0.85,43.5467,739.588)" /><path
       d="M 0,0 V -0.983"
       style="opacity:1;fill:none;stroke:#000000;stroke-width:0.8;stroke-linecap:butt;stroke-linejoin:bevel;stroke-miterlimit:10;stroke-dasharray:none;stroke-opacity:1"
       id="path1302"
       transform="matrix(0.85,0,0,0.85,43.5467,739.588)" /><path
       d="M 0,0 V -0.983"
       style="opacity:1;fill:none;stroke:#000000;stroke-width:0.8;stroke-linecap:butt;stroke-linejoin:bevel;stroke-miterlimit:10;stroke-dasharray:none;stroke-opacity:1"
       id="path1306"
       transform="matrix(0.85,0,0,0.85,43.5467,739.588)" /><path
       d="M 0,0 V -0.983"
       style="opacity:1;fill:none;stroke:#000000;stroke-width:0.8;stroke-linecap:butt;stroke-linejoin:bevel;stroke-miterlimit:10;stroke-dasharray:none;stroke-opacity:1"
       id="path1310"
       transform="matrix(0.85,0,0,0.85,43.5467,739.588)" /><path
       d="M 0,0 V -0.983"
       style="opacity:1;fill:none;stroke:#000000;stroke-width:0.8;stroke-linecap:butt;stroke-linejoin:bevel;stroke-miterlimit:10;stroke-dasharray:none;stroke-opacity:1"
       id="path1314"
       transform="matrix(0.85,0,0,0.85,43.2682,739.588)" /><path
       d="M 0,0 V -1.638"
       style="opacity:1;fill:none;stroke:#000000;stroke-width:0.8;stroke-linecap:butt;stroke-linejoin:bevel;stroke-miterlimit:10;stroke-dasharray:none;stroke-opacity:1"
       id="path1318"
       transform="matrix(0.85,0,0,0.85,43.2682,739.588)" /><path
       d="M 0,0 V -0.983"
       style="opacity:1;fill:none;stroke:#000000;stroke-width:0.8;stroke-linecap:butt;stroke-linejoin:bevel;stroke-miterlimit:10;stroke-dasharray:none;stroke-opacity:1"
       id="path1322"
       transform="matrix(0.85,0,0,0.85,43.2682,739.588)" /><path
       d="M 0,0 V -0.983"
       style="opacity:1;fill:none;stroke:#000000;stroke-width:0.8;stroke-linecap:butt;stroke-linejoin:bevel;stroke-miterlimit:10;stroke-dasharray:none;stroke-opacity:1"
       id="path1326"
       transform="matrix(0.85,0,0,0.85,43.2682,739.588)" /><path
       d="M 0,0 V -0.983"
       style="opacity:1;fill:none;stroke:#000000;stroke-width:0.8;stroke-linecap:butt;stroke-linejoin:bevel;stroke-miterlimit:10;stroke-dasharray:none;stroke-opacity:1"
       id="path1330"
       transform="matrix(0.85,0,0,0.85,43.2682,739.588)" /><path
       d="M 0,0 V -0.983"
       style="opacity:1;fill:none;stroke:#000000;stroke-width:0.8;stroke-linecap:butt;stroke-linejoin:bevel;stroke-miterlimit:10;stroke-dasharray:none;stroke-opacity:1"
       id="path1334"
       transform="matrix(0.85,0,0,0.85,43.2682,739.588)" /><path
       d="M 0,0 V -2.294"
       style="opacity:1;fill:none;stroke:#000000;stroke-width:0.8;stroke-linecap:butt;stroke-linejoin:bevel;stroke-miterlimit:10;stroke-dasharray:none;stroke-opacity:1"
       id="path1338"
       transform="matrix(0.85,0,0,0.85,43.2682,739.588)" /><path
       d="M 0,0 V -0.983"
       style="opacity:1;fill:none;stroke:#000000;stroke-width:0.8;stroke-linecap:butt;stroke-linejoin:bevel;stroke-miterlimit:10;stroke-dasharray:none;stroke-opacity:1"
       id="path1342"
       transform="matrix(0.85,0,0,0.85,43.2682,739.588)" /><path
       d="M 0,0 V -0.983"
       style="opacity:1;fill:none;stroke:#000000;stroke-width:0.8;stroke-linecap:butt;stroke-linejoin:bevel;stroke-miterlimit:10;stroke-dasharray:none;stroke-opacity:1"
       id="path1346"
       transform="matrix(0.85,0,0,0.85,42.9897,739.588)" /><path
       d="M 0,0 V -0.983"
       style="opacity:1;fill:none;stroke:#000000;stroke-width:0.8;stroke-linecap:butt;stroke-linejoin:bevel;stroke-miterlimit:10;stroke-dasharray:none;stroke-opacity:1"
       id="path1350"
       transform="matrix(0.85,0,0,0.85,42.9897,739.588)" /><path
       d="M 0,0 V -1.638"
       style="opacity:1;fill:none;stroke:#000000;stroke-width:0.8;stroke-linecap:butt;stroke-linejoin:bevel;stroke-miterlimit:10;stroke-dasharray:none;stroke-opacity:1"
       id="path1354"
       transform="matrix(0.85,0,0,0.85,42.7112,739.588)" /><path
       d="M 0,0 V -0.983"
       style="opacity:1;fill:none;stroke:#000000;stroke-width:0.8;stroke-linecap:butt;stroke-linejoin:bevel;stroke-miterlimit:10;stroke-dasharray:none;stroke-opacity:1"
       id="path1358"
       transform="matrix(0.85,0,0,0.85,42.7112,739.588)" /><path
       d="M 0,0 V -0.983"
       style="opacity:1;fill:none;stroke:#000000;stroke-width:0.8;stroke-linecap:butt;stroke-linejoin:bevel;stroke-miterlimit:10;stroke-dasharray:none;stroke-opacity:1"
       id="path1362"
       transform="matrix(0.85,0,0,0.85,42.4327,739.588)" /><path
       d="M 0,0 V -0.983"
       style="opacity:1;fill:none;stroke:#000000;stroke-width:0.8;stroke-linecap:butt;stroke-linejoin:bevel;stroke-miterlimit:10;stroke-dasharray:none;stroke-opacity:1"
       id="path1366"
       transform="matrix(0.85,0,0,0.85,42.4327,739.588)" /><path
       d="M 0,0 V -0.983"
       style="opacity:1;fill:none;stroke:#000000;stroke-width:0.8;stroke-linecap:butt;stroke-linejoin:bevel;stroke-miterlimit:10;stroke-dasharray:none;stroke-opacity:1"
       id="path1370"
       transform="matrix(0.85,0,0,0.85,42.1542,739.588)" /><path
       d="M 0,0 V -2.294"
       style="opacity:1;fill:none;stroke:#000000;stroke-width:0.8;stroke-linecap:butt;stroke-linejoin:bevel;stroke-miterlimit:10;stroke-dasharray:none;stroke-opacity:1"
       id="path1374"
       transform="matrix(0.85,0,0,0.85,42.1542,739.588)" /><path
       d="M 0,0 V -0.983"
       style="opacity:1;fill:none;stroke:#000000;stroke-width:0.8;stroke-linecap:butt;stroke-linejoin:bevel;stroke-miterlimit:10;stroke-dasharray:none;stroke-opacity:1"
       id="path1378"
       transform="matrix(0.85,0,0,0.85,40.7617,739.588)" /><path
       d="M 0,0 V -0.983"
       style="opacity:1;fill:none;stroke:#000000;stroke-width:0.8;stroke-linecap:butt;stroke-linejoin:bevel;stroke-miterlimit:10;stroke-dasharray:none;stroke-opacity:1"
       id="path1382"
       transform="matrix(0.85,0,0,0.85,39.3692,739.588)" /><path
       d="M 0,0 V -0.983"
       style="opacity:1;fill:none;stroke:#000000;stroke-width:0.8;stroke-linecap:butt;stroke-linejoin:bevel;stroke-miterlimit:10;stroke-dasharray:none;stroke-opacity:1"
       id="path1386"
       transform="matrix(0.85,0,0,0.85,38.2552,739.588)" /><path
       d="M 0,0 V -1.638"
       style="opacity:1;fill:none;stroke:#000000;stroke-width:0.8;stroke-linecap:butt;stroke-linejoin:bevel;stroke-miterlimit:10;stroke-dasharray:none;stroke-opacity:1"
       id="path1390"
       transform="matrix(0.85,0,0,0.85,36.8626,739.588)" /><path
       d="M 0,0 V -0.983"
       style="opacity:1;fill:none;stroke:#000000;stroke-width:0.8;stroke-linecap:butt;stroke-linejoin:bevel;stroke-miterlimit:10;stroke-dasharray:none;stroke-opacity:1"
       id="path1394"
       transform="matrix(0.85,0,0,0.85,35.7486,739.588)" /><path
       d="M 0,0 V -0.983"
       style="opacity:1;fill:none;stroke:#000000;stroke-width:0.8;stroke-linecap:butt;stroke-linejoin:bevel;stroke-miterlimit:10;stroke-dasharray:none;stroke-opacity:1"
       id="path1398"
       transform="matrix(0.85,0,0,0.85,34.6346,739.588)" /><path
       d="M 0,0 V -0.983"
       style="opacity:1;fill:none;stroke:#000000;stroke-width:0.8;stroke-linecap:butt;stroke-linejoin:bevel;stroke-miterlimit:10;stroke-dasharray:none;stroke-opacity:1"
       id="path1402"
       transform="matrix(0.85,0,0,0.85,33.5206,739.588)" /><path
       d="M 0,0 V -0.983"
       style="opacity:1;fill:none;stroke:#000000;stroke-width:0.8;stroke-linecap:butt;stroke-linejoin:bevel;stroke-miterlimit:10;stroke-dasharray:none;stroke-opacity:1"
       id="path1406"
       transform="matrix(0.85,0,0,0.85,32.685,739.588)" /><path
       d="M 0,0 V -2.294"
       style="opacity:1;fill:none;stroke:#000000;stroke-width:0.8;stroke-linecap:butt;stroke-linejoin:bevel;stroke-miterlimit:10;stroke-dasharray:none;stroke-opacity:1"
       id="path1410"
       transform="matrix(0.85,0,0,0.85,31.8496,739.588)" /><path
       d="M 0,0 V -0.983"
       style="opacity:1;fill:none;stroke:#000000;stroke-width:0.8;stroke-linecap:butt;stroke-linejoin:bevel;stroke-miterlimit:10;stroke-dasharray:none;stroke-opacity:1"
       id="path1414"
       transform="matrix(0.85,0,0,0.85,43.5467,739.588)" /><path
       d="M 0,0 V -0.983"
       style="opacity:1;fill:none;stroke:#000000;stroke-width:0.8;stroke-linecap:butt;stroke-linejoin:bevel;stroke-miterlimit:10;stroke-dasharray:none;stroke-opacity:1"
       id="path1418"
       transform="matrix(0.85,0,0,0.85,43.5467,739.588)" /><path
       d="M 0,0 V -0.983"
       style="opacity:1;fill:none;stroke:#000000;stroke-width:0.8;stroke-linecap:butt;stroke-linejoin:bevel;stroke-miterlimit:10;stroke-dasharray:none;stroke-opacity:1"
       id="path1422"
       transform="matrix(0.85,0,0,0.85,43.5467,739.588)" /><path
       d="M 0,0 V -0.983"
       style="opacity:1;fill:none;stroke:#000000;stroke-width:0.8;stroke-linecap:butt;stroke-linejoin:bevel;stroke-miterlimit:10;stroke-dasharray:none;stroke-opacity:1"
       id="path1426"
       transform="matrix(0.85,0,0,0.85,43.5467,739.588)" /><path
       d="M 0,0 V -1.638"
       style="opacity:1;fill:none;stroke:#000000;stroke-width:0.8;stroke-linecap:butt;stroke-linejoin:bevel;stroke-miterlimit:10;stroke-dasharray:none;stroke-opacity:1"
       id="path1430"
       transform="matrix(0.85,0,0,0.85,43.5467,739.588)" /><path
       d="M 0,0 V -0.983"
       style="opacity:1;fill:none;stroke:#000000;stroke-width:0.8;stroke-linecap:butt;stroke-linejoin:bevel;stroke-miterlimit:10;stroke-dasharray:none;stroke-opacity:1"
       id="path1434"
       transform="matrix(0.85,0,0,0.85,43.5467,739.588)" /><path
       d="M 0,0 V -0.983"
       style="opacity:1;fill:none;stroke:#000000;stroke-width:0.8;stroke-linecap:butt;stroke-linejoin:bevel;stroke-miterlimit:10;stroke-dasharray:none;stroke-opacity:1"
       id="path1438"
       transform="matrix(0.85,0,0,0.85,43.5467,739.588)" /><path
       d="M 0,0 V -0.983"
       style="opacity:1;fill:none;stroke:#000000;stroke-width:0.8;stroke-linecap:butt;stroke-linejoin:bevel;stroke-miterlimit:10;stroke-dasharray:none;stroke-opacity:1"
       id="path1442"
       transform="matrix(0.85,0,0,0.85,43.5467,739.588)" /><path
       d="M 0,0 V -0.983"
       style="opacity:1;fill:none;stroke:#000000;stroke-width:0.8;stroke-linecap:butt;stroke-linejoin:bevel;stroke-miterlimit:10;stroke-dasharray:none;stroke-opacity:1"
       id="path1446"
       transform="matrix(0.85,0,0,0.85,43.5467,739.588)" /><path
       d="M 0,0 V -2.294"
       style="opacity:1;fill:none;stroke:#000000;stroke-width:0.8;stroke-linecap:butt;stroke-linejoin:bevel;stroke-miterlimit:10;stroke-dasharray:none;stroke-opacity:1"
       id="path1450"
       transform="matrix(0.85,0,0,0.85,43.5467,739.588)" /><path
       d="M 0,0 V -0.983"
       style="opacity:1;fill:none;stroke:#000000;stroke-width:0.8;stroke-linecap:butt;stroke-linejoin:bevel;stroke-miterlimit:10;stroke-dasharray:none;stroke-opacity:1"
       id="path1454"
       transform="matrix(0.85,0,0,0.85,43.8252,739.588)" /><path
       d="M 0,0 V -0.983"
       style="opacity:1;fill:none;stroke:#000000;stroke-width:0.8;stroke-linecap:butt;stroke-linejoin:bevel;stroke-miterlimit:10;stroke-dasharray:none;stroke-opacity:1"
       id="path1458"
       transform="matrix(0.85,0,0,0.85,43.8252,739.588)" /><path
       d="M 0,0 V -0.983"
       style="opacity:1;fill:none;stroke:#000000;stroke-width:0.8;stroke-linecap:butt;stroke-linejoin:bevel;stroke-miterlimit:10;stroke-dasharray:none;stroke-opacity:1"
       id="path1462"
       transform="matrix(0.85,0,0,0.85,44.1037,739.588)" /><path
       d="M 0,0 V -1.638"
       style="opacity:1;fill:none;stroke:#000000;stroke-width:0.8;stroke-linecap:butt;stroke-linejoin:bevel;stroke-miterlimit:10;stroke-dasharray:none;stroke-opacity:1"
       id="path1466"
       transform="matrix(0.85,0,0,0.85,44.1037,739.588)" /><path
       d="M 0,0 V -0.983"
       style="opacity:1;fill:none;stroke:#000000;stroke-width:0.8;stroke-linecap:butt;stroke-linejoin:bevel;stroke-miterlimit:10;stroke-dasharray:none;stroke-opacity:1"
       id="path1470"
       transform="matrix(0.85,0,0,0.85,44.3822,739.588)" /><path
       d="M 0,0 V -0.983"
       style="opacity:1;fill:none;stroke:#000000;stroke-width:0.8;stroke-linecap:butt;stroke-linejoin:bevel;stroke-miterlimit:10;stroke-dasharray:none;stroke-opacity:1"
       id="path1474"
       transform="matrix(0.85,0,0,0.85,44.3822,739.588)" /><path
       d="M 0,0 V -0.983"
       style="opacity:1;fill:none;stroke:#000000;stroke-width:0.8;stroke-linecap:butt;stroke-linejoin:bevel;stroke-miterlimit:10;stroke-dasharray:none;stroke-opacity:1"
       id="path1478"
       transform="matrix(0.85,0,0,0.85,44.6607,739.588)" /><path
       d="M 0,0 V -0.983"
       style="opacity:1;fill:none;stroke:#000000;stroke-width:0.8;stroke-linecap:butt;stroke-linejoin:bevel;stroke-miterlimit:10;stroke-dasharray:none;stroke-opacity:1"
       id="path1482"
       transform="matrix(0.85,0,0,0.85,44.6607,739.588)" /><path
       d="M 0,0 V -2.294"
       style="opacity:1;fill:none;stroke:#000000;stroke-width:0.8;stroke-linecap:butt;stroke-linejoin:bevel;stroke-miterlimit:10;stroke-dasharray:none;stroke-opacity:1"
       id="path1486"
       transform="matrix(0.85,0,0,0.85,44.9392,739.588)" /><path
       d="M 0,0 V -0.983"
       style="opacity:1;fill:none;stroke:#000000;stroke-width:0.8;stroke-linecap:butt;stroke-linejoin:bevel;stroke-miterlimit:10;stroke-dasharray:none;stroke-opacity:1"
       id="path1490"
       transform="matrix(0.85,0,0,0.85,46.0532,739.588)" /><path
       d="M 0,0 V -0.983"
       style="opacity:1;fill:none;stroke:#000000;stroke-width:0.8;stroke-linecap:butt;stroke-linejoin:bevel;stroke-miterlimit:10;stroke-dasharray:none;stroke-opacity:1"
       id="path1494"
       transform="matrix(0.85,0,0,0.85,47.4458,739.588)" /><path
       d="M 0,0 V -0.983"
       style="opacity:1;fill:none;stroke:#000000;stroke-width:0.8;stroke-linecap:butt;stroke-linejoin:bevel;stroke-miterlimit:10;stroke-dasharray:none;stroke-opacity:1"
       id="path1498"
       transform="matrix(0.85,0,0,0.85,48.8383,739.588)" /><path
       d="M 0,0 V -1.638"
       style="opacity:1;fill:none;stroke:#000000;stroke-width:0.8;stroke-linecap:butt;stroke-linejoin:bevel;stroke-miterlimit:10;stroke-dasharray:none;stroke-opacity:1"
       id="path1502"
       transform="matrix(0.85,0,0,0.85,49.9523,739.588)" /><path
       d="M 0,0 V -0.983"
       style="opacity:1;fill:none;stroke:#000000;stroke-width:0.8;stroke-linecap:butt;stroke-linejoin:bevel;stroke-miterlimit:10;stroke-dasharray:none;stroke-opacity:1"
       id="path1506"
       transform="matrix(0.85,0,0,0.85,51.0663,739.588)" /><path
       d="M 0,0 V -0.983"
       style="opacity:1;fill:none;stroke:#000000;stroke-width:0.8;stroke-linecap:butt;stroke-linejoin:bevel;stroke-miterlimit:10;stroke-dasharray:none;stroke-opacity:1"
       id="path1510"
       transform="matrix(0.85,0,0,0.85,52.1803,739.588)" /><path
       d="M 0,0 V -0.983"
       style="opacity:1;fill:none;stroke:#000000;stroke-width:0.8;stroke-linecap:butt;stroke-linejoin:bevel;stroke-miterlimit:10;stroke-dasharray:none;stroke-opacity:1"
       id="path1514"
       transform="matrix(0.85,0,0,0.85,53.2943,739.588)" /><path
       d="M 0,0 V -0.983"
       style="opacity:1;fill:none;stroke:#000000;stroke-width:0.8;stroke-linecap:butt;stroke-linejoin:bevel;stroke-miterlimit:10;stroke-dasharray:none;stroke-opacity:1"
       id="path1518"
       transform="matrix(0.85,0,0,0.85,54.1299,739.588)" /><path
       d="M 0,0 V -2.294"
       style="opacity:1;fill:none;stroke:#000000;stroke-width:0.8;stroke-linecap:butt;stroke-linejoin:bevel;stroke-miterlimit:10;stroke-dasharray:none;stroke-opacity:1"
       id="path1522"
       transform="matrix(0.85,0,0,0.85,55.2439,739.588)" /><path
       d="M 0,0 V -0.983"
       style="opacity:1;fill:none;stroke:#000000;stroke-width:0.8;stroke-linecap:butt;stroke-linejoin:bevel;stroke-miterlimit:10;stroke-dasharray:none;stroke-opacity:1"
       id="path1526"
       transform="matrix(0.85,0,0,0.85,61.3709,739.588)" /><path
       d="M 0,0 V -0.983"
       style="opacity:1;fill:none;stroke:#000000;stroke-width:0.8;stroke-linecap:butt;stroke-linejoin:bevel;stroke-miterlimit:10;stroke-dasharray:none;stroke-opacity:1"
       id="path1530"
       transform="matrix(0.85,0,0,0.85,64.9915,739.588)" /><path
       d="M 0,0 V -0.983"
       style="opacity:1;fill:none;stroke:#000000;stroke-width:0.8;stroke-linecap:butt;stroke-linejoin:bevel;stroke-miterlimit:10;stroke-dasharray:none;stroke-opacity:1"
       id="path1534"
       transform="matrix(0.85,0,0,0.85,67.498,739.588)" /><path
       d="M 0,0 V -1.638"
       style="opacity:1;fill:none;stroke:#000000;stroke-width:0.8;stroke-linecap:butt;stroke-linejoin:bevel;stroke-miterlimit:10;stroke-dasharray:none;stroke-opacity:1"
       id="path1538"
       transform="matrix(0.85,0,0,0.85,69.4475,739.588)" /><path
       d="M 0,0 V -0.983"
       style="opacity:1;fill:none;stroke:#000000;stroke-width:0.8;stroke-linecap:butt;stroke-linejoin:bevel;stroke-miterlimit:10;stroke-dasharray:none;stroke-opacity:1"
       id="path1542"
       transform="matrix(0.85,0,0,0.85,70.8401,739.588)" /><path
       d="M 0,0 V -0.983"
       style="opacity:1;fill:none;stroke:#000000;stroke-width:0.8;stroke-linecap:butt;stroke-linejoin:bevel;stroke-miterlimit:10;stroke-dasharray:none;stroke-opacity:1"
       id="path1546"
       transform="matrix(0.85,0,0,0.85,71.9541,739.588)" /><path
       d="M 0,0 V -0.983"
       style="opacity:1;fill:none;stroke:#000000;stroke-width:0.8;stroke-linecap:butt;stroke-linejoin:bevel;stroke-miterlimit:10;stroke-dasharray:none;stroke-opacity:1"
       id="path1550"
       transform="matrix(0.85,0,0,0.85,73.0681,739.588)" /><path
       d="M 0,0 V -0.983"
       style="opacity:1;fill:none;stroke:#000000;stroke-width:0.8;stroke-linecap:butt;stroke-linejoin:bevel;stroke-miterlimit:10;stroke-dasharray:none;stroke-opacity:1"
       id="path1554"
       transform="matrix(0.85,0,0,0.85,74.1821,739.588)" /><path
       d="M 0,0 V -2.294"
       style="opacity:1;fill:none;stroke:#000000;stroke-width:0.8;stroke-linecap:butt;stroke-linejoin:bevel;stroke-miterlimit:10;stroke-dasharray:none;stroke-opacity:1"
       id="path1558"
       transform="matrix(0.85,0,0,0.85,74.7391,739.588)" /><path
       d="M 0,0 V -0.983"
       style="opacity:1;fill:none;stroke:#000000;stroke-width:0.8;stroke-linecap:butt;stroke-linejoin:bevel;stroke-miterlimit:10;stroke-dasharray:none;stroke-opacity:1"
       id="path1562"
       transform="matrix(0.85,0,0,0.85,80.0306,739.588)" /><path
       d="M 0,0 V -0.983"
       style="opacity:1;fill:none;stroke:#000000;stroke-width:0.8;stroke-linecap:butt;stroke-linejoin:bevel;stroke-miterlimit:10;stroke-dasharray:none;stroke-opacity:1"
       id="path1566"
       transform="matrix(0.85,0,0,0.85,83.0942,739.588)" /><path
       d="M 0,0 V -0.983"
       style="opacity:1;fill:none;stroke:#000000;stroke-width:0.8;stroke-linecap:butt;stroke-linejoin:bevel;stroke-miterlimit:10;stroke-dasharray:none;stroke-opacity:1"
       id="path1570"
       transform="matrix(0.85,0,0,0.85,85.0438,739.588)" /><path
       d="M 0,0 V -1.638"
       style="opacity:1;fill:none;stroke:#000000;stroke-width:0.8;stroke-linecap:butt;stroke-linejoin:bevel;stroke-miterlimit:10;stroke-dasharray:none;stroke-opacity:1"
       id="path1574"
       transform="matrix(0.85,0,0,0.85,86.7148,739.588)" /><path
       d="M 0,0 V -0.983"
       style="opacity:1;fill:none;stroke:#000000;stroke-width:0.8;stroke-linecap:butt;stroke-linejoin:bevel;stroke-miterlimit:10;stroke-dasharray:none;stroke-opacity:1"
       id="path1578"
       transform="matrix(0.85,0,0,0.85,88.1072,739.588)" /><path
       d="M 0,0 V -0.983"
       style="opacity:1;fill:none;stroke:#000000;stroke-width:0.8;stroke-linecap:butt;stroke-linejoin:bevel;stroke-miterlimit:10;stroke-dasharray:none;stroke-opacity:1"
       id="path1582"
       transform="matrix(0.85,0,0,0.85,88.9428,739.588)" /><path
       d="M 0,0 V -0.983"
       style="opacity:1;fill:none;stroke:#000000;stroke-width:0.8;stroke-linecap:butt;stroke-linejoin:bevel;stroke-miterlimit:10;stroke-dasharray:none;stroke-opacity:1"
       id="path1586"
       transform="matrix(0.85,0,0,0.85,90.0568,739.588)" /><path
       d="M 0,0 V -0.983"
       style="opacity:1;fill:none;stroke:#000000;stroke-width:0.8;stroke-linecap:butt;stroke-linejoin:bevel;stroke-miterlimit:10;stroke-dasharray:none;stroke-opacity:1"
       id="path1590"
       transform="matrix(0.85,0,0,0.85,90.8923,739.588)" /><path
       d="M 0,0 V -2.294"
       style="opacity:1;fill:none;stroke:#000000;stroke-width:0.8;stroke-linecap:butt;stroke-linejoin:bevel;stroke-miterlimit:10;stroke-dasharray:none;stroke-opacity:1"
       id="path1594"
       transform="matrix(0.85,0,0,0.85,91.7278,739.588)" /><path
       d="M 0,0 H -2.294"
       style="opacity:1;fill:none;stroke:#000000;stroke-width:0.8;stroke-linecap:butt;stroke-linejoin:bevel;stroke-miterlimit:10;stroke-dasharray:none;stroke-opacity:1"
       id="path1602"
       transform="matrix(0.85,0,0,0.85,27.3935,739.867)" /><path
       d="M 0,0 H -0.983"
       style="opacity:1;fill:none;stroke:#000000;stroke-width:0.8;stroke-linecap:butt;stroke-linejoin:bevel;stroke-miterlimit:10;stroke-dasharray:none;stroke-opacity:1"
       id="path1606"
       transform="matrix(0.85,0,0,0.85,27.3935,743.209)" /><path
       d="M 0,0 H -0.983"
       style="opacity:1;fill:none;stroke:#000000;stroke-width:0.8;stroke-linecap:butt;stroke-linejoin:bevel;stroke-miterlimit:10;stroke-dasharray:none;stroke-opacity:1"
       id="path1610"
       transform="matrix(0.85,0,0,0.85,27.3935,746.551)" /><path
       d="M 0,0 H -0.983"
       style="opacity:1;fill:none;stroke:#000000;stroke-width:0.8;stroke-linecap:butt;stroke-linejoin:bevel;stroke-miterlimit:10;stroke-dasharray:none;stroke-opacity:1"
       id="path1614"
       transform="matrix(0.85,0,0,0.85,27.3935,749.893)" /><path
       d="M 0,0 H -2.294"
       style="opacity:1;fill:none;stroke:#000000;stroke-width:0.8;stroke-linecap:butt;stroke-linejoin:bevel;stroke-miterlimit:10;stroke-dasharray:none;stroke-opacity:1"
       id="path1618"
       transform="matrix(0.85,0,0,0.85,27.3935,753.513)" /><path
       d="M 0,0 H -0.983"
       style="opacity:1;fill:none;stroke:#000000;stroke-width:0.8;stroke-linecap:butt;stroke-linejoin:bevel;stroke-miterlimit:10;stroke-dasharray:none;stroke-opacity:1"
       id="path1622"
       transform="matrix(0.85,0,0,0.85,27.3935,756.856)" /><path
       d="M 0,0 H -0.983"
       style="opacity:1;fill:none;stroke:#000000;stroke-width:0.8;stroke-linecap:butt;stroke-linejoin:bevel;stroke-miterlimit:10;stroke-dasharray:none;stroke-opacity:1"
       id="path1626"
       transform="matrix(0.85,0,0,0.85,27.3935,760.197)" /><path
       d="M 0,0 H -0.983"
       style="opacity:1;fill:none;stroke:#000000;stroke-width:0.8;stroke-linecap:butt;stroke-linejoin:bevel;stroke-miterlimit:10;stroke-dasharray:none;stroke-opacity:1"
       id="path1630"
       transform="matrix(0.85,0,0,0.85,27.3935,763.539)" /><path
       d="M 0,0 H -2.294"
       style="opacity:1;fill:none;stroke:#000000;stroke-width:0.8;stroke-linecap:butt;stroke-linejoin:bevel;stroke-miterlimit:10;stroke-dasharray:none;stroke-opacity:1"
       id="path1634"
       transform="matrix(0.85,0,0,0.85,27.3935,766.882)" /><path
       d="M 0,0 H -0.983"
       style="opacity:1;fill:none;stroke:#000000;stroke-width:0.8;stroke-linecap:butt;stroke-linejoin:bevel;stroke-miterlimit:10;stroke-dasharray:none;stroke-opacity:1"
       id="path1638"
       transform="matrix(0.85,0,0,0.85,27.3935,770.224)" /><path
       d="M 0,0 H -0.983"
       style="opacity:1;fill:none;stroke:#000000;stroke-width:0.8;stroke-linecap:butt;stroke-linejoin:bevel;stroke-miterlimit:10;stroke-dasharray:none;stroke-opacity:1"
       id="path1642"
       transform="matrix(0.85,0,0,0.85,27.3935,773.566)" /><path
       d="M 0,0 H -0.983"
       style="opacity:1;fill:none;stroke:#000000;stroke-width:0.8;stroke-linecap:butt;stroke-linejoin:bevel;stroke-miterlimit:10;stroke-dasharray:none;stroke-opacity:1"
       id="path1646"
       transform="matrix(0.85,0,0,0.85,27.3935,777.186)" /><path
       d="M 0,0 H -2.294"
       style="opacity:1;fill:none;stroke:#000000;stroke-width:0.8;stroke-linecap:butt;stroke-linejoin:bevel;stroke-miterlimit:10;stroke-dasharray:none;stroke-opacity:1"
       id="path1650"
       transform="matrix(0.85,0,0,0.85,27.3935,780.528)" /><path
       d="M 0,0 H -0.983"
       style="opacity:1;fill:none;stroke:#000000;stroke-width:0.8;stroke-linecap:butt;stroke-linejoin:bevel;stroke-miterlimit:10;stroke-dasharray:none;stroke-opacity:1"
       id="path1654"
       transform="matrix(0.85,0,0,0.85,27.3935,783.87)" /><path
       d="M 0,0 H -0.983"
       style="opacity:1;fill:none;stroke:#000000;stroke-width:0.8;stroke-linecap:butt;stroke-linejoin:bevel;stroke-miterlimit:10;stroke-dasharray:none;stroke-opacity:1"
       id="path1658"
       transform="matrix(0.85,0,0,0.85,27.3935,787.212)" /><path
       d="M 0,0 H -0.983"
       style="opacity:1;fill:none;stroke:#000000;stroke-width:0.8;stroke-linecap:butt;stroke-linejoin:bevel;stroke-miterlimit:10;stroke-dasharray:none;stroke-opacity:1"
       id="path1662"
       transform="matrix(0.85,0,0,0.85,27.3935,790.554)" /><path
       d="M 0,0 H -2.294"
       style="opacity:1;fill:none;stroke:#000000;stroke-width:0.8;stroke-linecap:butt;stroke-linejoin:bevel;stroke-miterlimit:10;stroke-dasharray:none;stroke-opacity:1"
       id="path1666"
       transform="matrix(0.85,0,0,0.85,27.3935,793.896)" /><path
       d="M 0,0 H -0.983"
       style="opacity:1;fill:none;stroke:#000000;stroke-width:0.8;stroke-linecap:butt;stroke-linejoin:bevel;stroke-miterlimit:10;stroke-dasharray:none;stroke-opacity:1"
       id="path1670"
       transform="matrix(0.85,0,0,0.85,27.3935,797.239)" /><path
       d="M 0,0 H -0.983"
       style="opacity:1;fill:none;stroke:#000000;stroke-width:0.8;stroke-linecap:butt;stroke-linejoin:bevel;stroke-miterlimit:10;stroke-dasharray:none;stroke-opacity:1"
       id="path1674"
       transform="matrix(0.85,0,0,0.85,27.3935,800.859)" /><path
       d="M 0,0 H -0.983"
       style="opacity:1;fill:none;stroke:#000000;stroke-width:0.8;stroke-linecap:butt;stroke-linejoin:bevel;stroke-miterlimit:10;stroke-dasharray:none;stroke-opacity:1"
       id="path1678"
       transform="matrix(0.85,0,0,0.85,27.3935,804.201)" /><path
       d="M 0,0 H -2.294"
       style="opacity:1;fill:none;stroke:#000000;stroke-width:0.8;stroke-linecap:butt;stroke-linejoin:bevel;stroke-miterlimit:10;stroke-dasharray:none;stroke-opacity:1"
       id="path1682"
       transform="matrix(0.85,0,0,0.85,27.3935,807.543)" /><path
       d="M 0,0 H -0.983"
       style="opacity:1;fill:none;stroke:#000000;stroke-width:0.8;stroke-linecap:butt;stroke-linejoin:bevel;stroke-miterlimit:10;stroke-dasharray:none;stroke-opacity:1"
       id="path1686"
       transform="matrix(0.85,0,0,0.85,27.3935,810.885)" /><text
       transform="matrix(0.849982,0,0,-0.850017,5.85603,119.435)"
       style="font-variant:normal;font-weight:bold;font-stretch:normal;font-size:7.06px;font-family:Arial;-inkscape-font-specification:Arial-BoldMT;text-align:center;writing-mode:lr-tb;text-anchor:middle;opacity:1;fill:#000000;fill-opacity:1;fill-rule:nonzero;stroke:none;stroke-width:0.8;stroke-dasharray:none"
       id="text4834"
       x="65.500107"
       y="-719.06897"
       xml:space="preserve"><tspan
         id="tspan4832"
         style="font-style:normal;font-variant:normal;font-weight:normal;font-stretch:normal;font-size:7.06px;font-family:Arial;-inkscape-font-specification:Arial;text-align:center;text-anchor:middle;stroke-width:0.8;stroke-dasharray:none"
         x="65.500107"
         y="-719.06897"
         sodipodi:role="line">mBBr (MFI)</tspan></text><text
       transform="matrix(0,0.849982,0.850017,0,6.00638,119.385)"
       style="font-variant:normal;font-weight:bold;font-stretch:normal;font-size:7.06px;font-family:Arial;-inkscape-font-specification:Arial-BoldMT;text-align:center;writing-mode:lr-tb;text-anchor:middle;opacity:1;fill:#000000;fill-opacity:1;fill-rule:nonzero;stroke:none;stroke-width:0.8;stroke-dasharray:none"
       id="text4838"
       x="739.5061"
       y="19.66626"
       xml:space="preserve"><tspan
         id="tspan4836"
         style="font-style:normal;font-variant:normal;font-weight:normal;font-stretch:normal;font-size:7.06px;font-family:Arial;-inkscape-font-specification:Arial;text-align:center;text-anchor:middle;stroke-width:0.8;stroke-dasharray:none"
         x="739.5061"
         y="19.66626"
         sodipodi:role="line">Count</tspan></text><path
       d="M 0,0 V 39.619"
       style="opacity:1;fill:none;stroke:#000000;stroke-width:0.8;stroke-linecap:butt;stroke-linejoin:miter;stroke-miterlimit:10;stroke-dasharray:none;stroke-opacity:1"
       id="path4850"
       transform="matrix(0.85,0,0,0.85,21.1683,765.809)"
       clip-path="url(#clipPath64)" /><path
       d="M 0,0 -2.493,4.318 -4.986,0 Z"
       style="opacity:1;fill:#000000;fill-opacity:1;fill-rule:nonzero;stroke:none;stroke-width:0.8;stroke-dasharray:none"
       id="path4854"
       transform="matrix(0.85,0,0,0.85,23.2875,798.865)"
       clip-path="url(#clipPath63)" /><text
       transform="matrix(0.849982,0,0,-0.850017,5.89882,119.431)"
       style="font-variant:normal;font-weight:normal;font-stretch:normal;font-size:7.06px;font-family:Arial;-inkscape-font-specification:ArialMT;text-align:center;writing-mode:lr-tb;text-anchor:middle;opacity:1;fill:#000000;fill-opacity:1;fill-rule:nonzero;stroke:none;stroke-width:0.8;stroke-dasharray:none"
       id="text5078"
       x="66.439659"
       y="-816.4682"
       xml:space="preserve"><tspan
         x="66.439659"
         y="-816.4682"
         id="tspan5076"
         style="font-size:7.06px;text-align:center;text-anchor:middle;stroke-width:0.8;stroke-dasharray:none"
         sodipodi:role="line">LP CD4<tspan
   style="font-size:65%;baseline-shift:super;stroke-width:0.8;stroke-dasharray:none"
   id="tspan8249">+</tspan> cells</tspan></text><text
       xml:space="preserve"
       transform="matrix(0.75,0,0,-0.75,0,841.89)"
       id="text6309"
       style="white-space:pre;shape-inside:url(#rect6311);display:inline;fill:#000000;stroke-width:1.06667;stroke-dasharray:none" /><text
       xml:space="preserve"
       style="font-size:6px;fill:#000000;stroke-width:0.8;stroke-dasharray:none"
       x="780"
       y="-230.64001"
       id="text50369"
       transform="scale(1,-1)"><tspan
         sodipodi:role="line"
         id="tspan50367"
         style="stroke-width:0.8;stroke-dasharray:none"
         x="780"
         y="-230.64001" /></text><text
       xml:space="preserve"
       style="font-size:7px;fill:#000000;stroke-width:0.8;stroke-dasharray:none"
       x="889.5"
       y="-420.94501"
       id="text51359"
       transform="scale(1,-1)"><tspan
         sodipodi:role="line"
         id="tspan51357"
         style="stroke-width:0.8;stroke-dasharray:none"
         x="889.5"
         y="-420.94501" /></text><text
       xml:space="preserve"
       transform="matrix(0.75,0,0,-0.75,0,841.89)"
       id="text54830"
       style="font-size:8px;white-space:pre;shape-inside:url(#rect54832);display:inline;fill:#000000;stroke-width:1.06667;stroke-dasharray:none" /><text
       xml:space="preserve"
       transform="matrix(0.75,0,0,-0.75,0,841.89)"
       id="text54836"
       style="font-style:normal;font-variant:normal;font-weight:normal;font-stretch:normal;font-size:8px;font-family:Arial;-inkscape-font-specification:Arial;white-space:pre;shape-inside:url(#rect54838);display:inline;fill:#000000;stroke-width:1.06667;stroke-dasharray:none" /><text
       xml:space="preserve"
       transform="matrix(0.75,0,0,-0.75,4.20382e-8,841.89)"
       id="text55589"
       style="font-style:normal;font-variant:normal;font-weight:normal;font-stretch:normal;font-size:8px;font-family:Arial;-inkscape-font-specification:Arial;white-space:pre;shape-inside:url(#rect55591);display:inline;fill:#000000;stroke-width:1.06667;stroke-dasharray:none" /><text
       xml:space="preserve"
       transform="matrix(0.75,0,0,-0.75,0,841.89)"
       id="text1"
       style="font-style:normal;font-weight:normal;font-size:40px;line-height:1.25;font-family:sans-serif;white-space:pre;shape-inside:url(#rect2);display:inline;fill:#000000;fill-opacity:1;stroke:none" /><text
       xml:space="preserve"
       transform="matrix(0.75,0,0,-0.75,0,841.89)"
       id="text2"
       style="font-style:normal;font-weight:normal;font-size:40px;line-height:1.25;font-family:sans-serif;white-space:pre;shape-inside:url(#rect3);display:inline;fill:#000000;fill-opacity:1;stroke:none" /></g></svg>
